<svg id="_15_segons_davant" data-name="15 segons davant" xmlns="http://www.w3.org/2000/svg" width="19.922" height="21.812" viewBox="0 0 19.922 21.812">
  <path id="Trazado_167" data-name="Trazado 167" d="M0,11.855a10.035,10.035,0,0,0,9.961,9.961,10.029,10.029,0,0,0,9.961-9.961A10.009,10.009,0,0,0,15.752,3.8a.8.8,0,0,0-1.211.176.866.866,0,0,0,.283,1.172A8.292,8.292,0,1,1,1.67,11.855,8.241,8.241,0,0,1,8.076,3.779v1.4c0,.694.479.879,1.016.5l3.115-2.187a.616.616,0,0,0,0-1.094L9.1.205C8.555-.186,8.076,0,8.076.7V2.08A10.041,10.041,0,0,0,0,11.855" transform="translate(0 -0.004)" fill="#fff"/>
  <path id="Trazado_168" data-name="Trazado 168" d="M7.353,15.868a.661.661,0,0,0,.684-.722V8.974a.713.713,0,0,0-.781-.762,1.545,1.545,0,0,0-.977.41l-1.1.821a.628.628,0,0,0-.313.537.478.478,0,0,0,.479.5.5.5,0,0,0,.351-.127l.967-.723h.019v5.518a.659.659,0,0,0,.674.722m4.8.059a2.433,2.433,0,0,0,2.471-2.646A2.166,2.166,0,0,0,12.6,10.849a1.6,1.6,0,0,0-1.455.8H11.1l.176-2.227H13.76a.547.547,0,0,0,0-1.094H10.928c-.508,0-.743.264-.772.782l-.215,2.841c-.029.44.2.762.625.762a.746.746,0,0,0,.645-.361,1.183,1.183,0,0,1,.957-.508c.771,0,1.152.693,1.152,1.475,0,.83-.42,1.523-1.162,1.523a1.245,1.245,0,0,1-1.172-.889.63.63,0,0,0-.586-.42.525.525,0,0,0-.556.567,1.332,1.332,0,0,0,.048.342,2.311,2.311,0,0,0,2.266,1.484" transform="translate(0 -0.004)" fill="#fff"/>
</svg>
