<svg xmlns="http://www.w3.org/2000/svg" width="19.922" height="21.815" viewBox="0 0 19.922 21.815">
  <g id="_15_segons_enrere" data-name="15 segons enrere" transform="translate(0)">
    <path id="Trazado_169" data-name="Trazado 169" d="M24.746,11.854a9.961,9.961,0,1,0,19.922,0,10.041,10.041,0,0,0-8.076-9.775V.692c0-.693-.479-.879-1.006-.5L32.471,2.372a.617.617,0,0,0,0,1.1l3.1,2.188c.537.39,1.016.2,1.016-.5V3.778a8.315,8.315,0,1,1-6.748,1.367.866.866,0,0,0,.283-1.172A.8.8,0,0,0,28.916,3.8a10.011,10.011,0,0,0-4.17,8.057" transform="translate(-24.746 0)" fill="#fff"/>
    <path id="Trazado_170" data-name="Trazado 170" d="M32.148,15.868a.661.661,0,0,0,.684-.722V8.974a.713.713,0,0,0-.781-.762,1.545,1.545,0,0,0-.977.41l-1.1.821a.628.628,0,0,0-.313.537.478.478,0,0,0,.479.5.5.5,0,0,0,.351-.127l.967-.723h.02v5.518a.658.658,0,0,0,.673.722m4.805.059a2.433,2.433,0,0,0,2.471-2.646,2.171,2.171,0,0,0-2.032-2.432,1.6,1.6,0,0,0-1.455.8H35.9l.176-2.227h2.481a.547.547,0,0,0,0-1.094H35.723c-.508,0-.743.264-.772.782l-.215,2.841c-.029.44.2.762.625.762a.746.746,0,0,0,.645-.361,1.183,1.183,0,0,1,.957-.508c.771,0,1.152.693,1.152,1.475,0,.83-.42,1.523-1.162,1.523a1.245,1.245,0,0,1-1.172-.889.63.63,0,0,0-.586-.42.525.525,0,0,0-.556.567,1.332,1.332,0,0,0,.048.342,2.311,2.311,0,0,0,2.266,1.484" transform="translate(-24.746 0)" fill="#fff"/>
  </g>
</svg>
