<svg xmlns="http://www.w3.org/2000/svg" width="42.057" height="24" viewBox="0 0 42.057 24">
  <path id="Anterior_Contingut" data-name="Anterior Contingut" d="M50.6,24.019c1.192,0,2.2-.917,2.2-2.612V2.631c0-1.7-1.007-2.612-2.2-2.612A3.3,3.3,0,0,0,48.84.585L33.273,9.751a2.6,2.6,0,0,0-1.544,2.26,2.6,2.6,0,0,0,1.544,2.276L48.84,23.454a3.278,3.278,0,0,0,1.757.565m20.99,0c1.192,0,2.2-.917,2.2-2.612V2.631c0-1.7-1.007-2.612-2.2-2.612A3.3,3.3,0,0,0,69.83.585L54.263,9.751a2.6,2.6,0,0,0-1.544,2.26,2.6,2.6,0,0,0,1.544,2.276L69.83,23.454a3.278,3.278,0,0,0,1.757.565" transform="translate(-31.729 -0.019)" fill="#fff"/>
</svg>
