<svg id="Disco" xmlns="http://www.w3.org/2000/svg" width="28" height="27.998" viewBox="0 0 28 27.998">
  <path id="Trazado_414" data-name="Trazado 414" d="M13.31,12.153A1.157,1.157,0,0,0,11,12.13c0,.008,0,.015,0,.023a1.157,1.157,0,0,0,2.314.023C13.313,12.169,13.31,12.162,13.31,12.153Z" transform="translate(1.839 1.839)" fill="rgba(255,255,255,0.8)"/>
  <path id="Trazado_415" data-name="Trazado 415" d="M27.991,14c0-.1.011-.195.007-.294A14,14,0,0,0,0,14H.008c0,.1-.011.195-.007.294A14,14,0,0,0,28,14ZM20.748,4.546a9.923,9.923,0,0,1,2.723,2.685L19.842,9.825,18.186,8.136l2.562-3.589m-13.5,18.9a9.906,9.906,0,0,1-2.723-2.685l3.629-2.594,1.656,1.689L7.252,23.45M18.661,14a4.659,4.659,0,1,1-9.318,0h0a4.659,4.659,0,1,1,9.318,0Z" transform="translate(0 0)" fill="rgba(255,255,255,0.8)"/>
</svg>
