<svg xmlns="http://www.w3.org/2000/svg" width="50.294" height="14.805" viewBox="0 0 50.294 14.805">
  <path id="Trazado_420" data-name="Trazado 420" d="M18.135,7.4a.885.885,0,0,0-.293-.654L11.367.293A.874.874,0,0,0,10.713,0a.824.824,0,0,0-.85.84.863.863,0,0,0,.234.615l2.188,2.227,3.877,3.535.2-.488-3.145-.2H-31.3s-.859.361-.859.869a.828.828,0,0,0,.859.869H13.213l3.145-.2-.2-.479-3.877,3.525L10.1,13.35a.847.847,0,0,0-.234.615.824.824,0,0,0,.85.84.89.89,0,0,0,.635-.273l6.494-6.475A.885.885,0,0,0,18.135,7.4Z" transform="translate(32.159)" fill="#fff"/>
</svg>
