<svg xmlns="http://www.w3.org/2000/svg" width="29" height="29" viewBox="0 0 29 29">
  <g id="Heart_-_Icon" data-name="Heart - Icon" transform="translate(0.5 0.5)">
    <g id="Grupo_1669" data-name="Grupo 1669" transform="translate(0 0)">
      <path id="Sustracción_1" data-name="Sustracción 1" d="M14,28A13.963,13.963,0,0,1,4.126,4.128a13.862,13.862,0,0,1,19.739,0A14,14,0,0,1,14,28ZM10.815,7.945a3.966,3.966,0,0,0-4.009,4.187c0,4.189,5.064,7.731,6.616,8.717l.158.09a1.463,1.463,0,0,0,.556.239,1.385,1.385,0,0,0,.659-.329c1.989-1.3,6.616-4.765,6.616-8.717A3.966,3.966,0,0,0,17.4,7.945a3.744,3.744,0,0,0-3.3,2.086A3.7,3.7,0,0,0,10.815,7.945Z" transform="translate(0 0)" fill="rgba(255,255,255,0.3)" stroke="rgba(0,0,0,0)" stroke-miterlimit="10" stroke-width="1"/>
    </g>
    <path id="Trazado_433" data-name="Trazado 433" d="M70.5,5.654a3.958,3.958,0,0,0-4.009,4.187c0,3.609,3.8,6.931,6.616,8.716a2.158,2.158,0,0,0,.714.329,1.486,1.486,0,0,0,.659-.329c2.786-1.826,6.616-5.106,6.616-8.716a3.957,3.957,0,0,0-4.007-4.187A3.731,3.731,0,0,0,73.791,7.74,3.718,3.718,0,0,0,70.5,5.654" transform="translate(-59.681 2.292)" fill="none" stroke="#fff" stroke-width="1"/>
  </g>
</svg>
