<svg id="icones_3_puntets" data-name="icones 3 puntets" xmlns="http://www.w3.org/2000/svg" width="28" height="28" viewBox="0 0 28 28">
  <g id="Icona_-_Tres_puntets" data-name="Icona - Tres puntets">
    <path id="Trazado_145" data-name="Trazado 145" d="M42.194,28a14.1,14.1,0,0,0,14-14,14,14,0,1,0-28,0,14.113,14.113,0,0,0,14,14" transform="translate(-28.194 0)" fill="rgba(255,255,255,0.3)"/>
    <path id="Trazado_146" data-name="Trazado 146" d="M42.949,11.852a1.659,1.659,0,1,0-1.659-1.659,1.668,1.668,0,0,0,1.659,1.659" transform="translate(-22.376 4.464)" fill="#fff"/>
    <path id="Trazado_147" data-name="Trazado 147" d="M38.388,11.852a1.659,1.659,0,1,0-1.659-1.659,1.66,1.66,0,0,0,1.659,1.659" transform="translate(-24.402 4.464)" fill="#fff"/>
    <path id="Trazado_148" data-name="Trazado 148" d="M33.837,11.852a1.659,1.659,0,1,0-1.659-1.659,1.658,1.658,0,0,0,1.659,1.659" transform="translate(-26.425 4.464)" fill="#fff"/>
  </g>
</svg>
