<svg id="Icona_-_Comentaris" data-name="Icona - Comentaris" xmlns="http://www.w3.org/2000/svg" width="25.481" height="23.986" viewBox="0 0 25.481 23.986">
  <path id="Trazado_416" data-name="Trazado 416" d="M7.483,25.137a3.1,3.1,0,0,0,2.06-1.06l3.824-3.372h6.74c3.4,0,5.375-2.011,5.375-5.378V6.53c0-3.368-1.97-5.38-5.375-5.38H5.376C1.97,1.151,0,3.154,0,6.53v8.8c0,3.375,2.052,5.378,5.251,5.378H5.9v2.654a1.558,1.558,0,0,0,1.58,1.778m.611-2.8V19.172c0-.7-.32-.969-.968-.969H5.485C3.474,18.2,2.5,17.182,2.5,15.212V6.638A2.636,2.636,0,0,1,5.485,3.654H19.994a2.638,2.638,0,0,1,2.984,2.984v8.575A2.643,2.643,0,0,1,19.994,18.2H13.211a1.831,1.831,0,0,0-1.572.64Z" transform="translate(0 -1.151)" fill="rgba(255,255,255,0.6)"/>
  <path id="Trazado_417" data-name="Trazado 417" d="M15.989,11.592a1.72,1.72,0,1,0-1.715-1.718,1.719,1.719,0,0,0,1.715,1.718" transform="translate(2.151 -0.096)" fill="rgba(255,255,255,0.6)"/>
  <path id="Trazado_418" data-name="Trazado 418" d="M11.308,11.592A1.72,1.72,0,1,0,9.58,9.874a1.725,1.725,0,0,0,1.728,1.718" transform="translate(1.444 -0.096)" fill="rgba(255,255,255,0.6)"/>
  <path id="Trazado_419" data-name="Trazado 419" d="M6.618,11.592A1.72,1.72,0,1,0,4.9,9.874a1.718,1.718,0,0,0,1.718,1.718" transform="translate(0.738 -0.096)" fill="rgba(255,255,255,0.6)"/>
</svg>
