<svg xmlns="http://www.w3.org/2000/svg" xmlns:xlink="http://www.w3.org/1999/xlink" width="124.995" height="18.667" viewBox="0 0 124.995 18.667">
  <defs>
    <clipPath id="clip-path">
      <rect id="Rectángulo_394" data-name="Rectángulo 394" width="124.995" height="18.667" fill="none"/>
    </clipPath>
  </defs>
  <g id="Logo_verificació_de_Generalitat_Catalunya_Departament_d_Educació" data-name="Logo verificació de Generalitat Catalunya Departament d&apos;Educació" transform="translate(0 -1)">
    <g id="Grupo_1478" data-name="Grupo 1478" transform="translate(0 1)" opacity="0.6" clip-path="url(#clip-path)">
      <path id="Trazado_433" data-name="Trazado 433" d="M7.489.118c4.025,0,7.289,3.8,7.289,8.5s-3.264,8.5-7.289,8.5S.2,13.31.2,8.617,3.463.118,7.489.118M2.408,12.684V4.55A8.3,8.3,0,0,0,1.373,8.617a8.3,8.3,0,0,0,1.035,4.067M3.957,2.65V14.583a5.893,5.893,0,0,0,1.323.849V1.8a5.844,5.844,0,0,0-1.323.85m2.873-1.3V15.882a5.189,5.189,0,0,0,.659.043,5.26,5.26,0,0,0,.663-.043V1.351a5.26,5.26,0,0,0-.663-.043,5.189,5.189,0,0,0-.659.043M9.7,1.8V15.43a5.86,5.86,0,0,0,1.323-.851V2.654A5.86,5.86,0,0,0,9.7,1.8m2.873,2.755v8.117A8.314,8.314,0,0,0,13.6,8.617a8.311,8.311,0,0,0-1.029-4.059m-1.55-2.636A6.263,6.263,0,0,0,9.7,1.171v.354a5.991,5.991,0,0,1,1.323.8ZM7.489.727A5.82,5.82,0,0,0,6.83.766v.329a5.491,5.491,0,0,1,.659-.04,5.557,5.557,0,0,1,.663.04V.766A5.889,5.889,0,0,0,7.489.727M5.28,1.169a6.272,6.272,0,0,0-1.323.749v.407a6,6,0,0,1,1.323-.8ZM.8,8.617a8.733,8.733,0,0,0,1.6,5.125v-.574A8.484,8.484,0,0,1,1.125,8.617,8.485,8.485,0,0,1,2.408,4.064V3.49A8.734,8.734,0,0,0,.8,8.617m3.154,6.7a6.308,6.308,0,0,0,1.323.75V15.71a6.033,6.033,0,0,1-1.323-.8Zm3.532,1.191a5.889,5.889,0,0,0,.663-.038v-.329a5.557,5.557,0,0,1-.663.04,5.2,5.2,0,0,1-.659-.04v.329a5.82,5.82,0,0,0,.659.038M9.7,16.062a6.29,6.29,0,0,0,1.323-.75V14.9a6.019,6.019,0,0,1-1.323.8Zm2.873-2.9v.574a8.733,8.733,0,0,0,1.6-5.119,8.733,8.733,0,0,0-1.6-5.12v.574a8.494,8.494,0,0,1,1.277,4.546,8.5,8.5,0,0,1-1.277,4.545" transform="translate(-0.05 -0.03)" fill="#fff"/>
      <path id="Trazado_434" data-name="Trazado 434" d="M17.858,20.067a1.126,1.126,0,0,1,.308.97,1.211,1.211,0,0,1-.976-.32,2,2,0,0,0-.6.326,2.277,2.277,0,0,0-.223-.484c-.879.591-1.575.333-3.153.383V20.9a7.373,7.373,0,0,0,1.056-.469c.839-.435.988-.911,1.768-.94a1.448,1.448,0,0,0,0-.578,2.126,2.126,0,0,0,.545.023,1.472,1.472,0,0,1,.273-.893c.072-.11.1-.159.225-.347a8.634,8.634,0,0,0,1-2.365h.038l.038,2.694a2.079,2.079,0,0,1-.437,1.17,2.434,2.434,0,0,0,.471.286,1.989,1.989,0,0,0-.341.588m.136-.533a1.083,1.083,0,0,1-.374-.21v0l-.021.021a.7.7,0,0,1-.285.286l0,.01a.357.357,0,0,1,.031.124l.007-.007s.538-.179.641-.221m-.374-2.446c-.328.845-1.029,1.315-.8,2.048a.56.56,0,0,0,.11.252.44.44,0,0,1,.151.021,13.569,13.569,0,0,0,1-3.878,7.406,7.406,0,0,1-.46,1.557m-1.413,1.986a.8.8,0,0,1,0,.407.922.922,0,0,1,.384.112l0-.007a.332.332,0,0,1,.058-.076.247.247,0,0,1,.04-.034v0Zm-2.755,1.8a9.805,9.805,0,0,0,3.083-.949h.01a.447.447,0,0,1-.024-.149,1.028,1.028,0,0,0-.414-.12c-.728-.041-1.075.681-2.043,1.028Zm3.205-.032.232-.639h-.006a.354.354,0,0,1-.149-.046h0a.639.639,0,0,1-.225.312.936.936,0,0,1,.153.374m.112-.875a.239.239,0,1,0,0-.337.24.24,0,0,0,0,.337m.462.541a.986.986,0,0,0,.777.345l-.747-.8a.393.393,0,0,1-.171.124.57.57,0,0,0,.14.335" transform="translate(-3.321 -3.851)" fill="#fff"/>
      <path id="Trazado_435" data-name="Trazado 435" d="M17.858,1a2.025,2.025,0,0,0,.341.589,2.358,2.358,0,0,0-.471.285,2.081,2.081,0,0,1,.437,1.17l-.038,2.695h-.038a8.634,8.634,0,0,0-1-2.365c-.128-.187-.153-.237-.225-.347a1.472,1.472,0,0,1-.273-.893,2.2,2.2,0,0,0-.545.023,1.447,1.447,0,0,0,0-.578c-.779-.028-.928-.505-1.768-.94A7.461,7.461,0,0,0,13.219.165V.12C14.8.171,15.493-.087,16.372.5A2.3,2.3,0,0,0,16.6.02a2.018,2.018,0,0,0,.6.326,1.209,1.209,0,0,1,.976-.32,1.123,1.123,0,0,1-.308.97m.136.534c-.1-.042-.641-.222-.641-.222L17.347,1.3a.369.369,0,0,1-.031.125l0,.008a.693.693,0,0,1,.285.287l.021.02v0a1.047,1.047,0,0,1,.374-.21M17.62,3.976a7.4,7.4,0,0,1,.46,1.556,13.576,13.576,0,0,0-1-3.878.454.454,0,0,1-.151.022.559.559,0,0,0-.11.252c-.224.734.477,1.2.8,2.049M16.207,1.99l.478-.4v0a.362.362,0,0,1-.04-.034.389.389,0,0,1-.058-.076l0-.006a.953.953,0,0,1-.384.112.794.794,0,0,1,0,.407M13.453.188l.612.19c.967.347,1.315,1.069,2.043,1.028a1.038,1.038,0,0,0,.414-.118.449.449,0,0,1,.024-.151h-.01A9.747,9.747,0,0,0,13.453.188m3.205.032a.935.935,0,0,1-.153.373.648.648,0,0,1,.225.314h0a.357.357,0,0,1,.149-.049h.006Zm.112.873a.239.239,0,1,0,.338,0,.24.24,0,0,0-.338,0m.462-.541a.573.573,0,0,0-.14.336.385.385,0,0,1,.171.124l.747-.8a.985.985,0,0,0-.777.344" transform="translate(-3.321 -0.005)" fill="#fff"/>
      <path id="Trazado_436" data-name="Trazado 436" d="M.341,20.047A1.986,1.986,0,0,0,0,19.459a2.326,2.326,0,0,0,.469-.287A2.086,2.086,0,0,1,.034,18l.039-2.7H.112a8.613,8.613,0,0,0,1,2.367c.128.188.153.236.225.347a1.466,1.466,0,0,1,.273.892,2.232,2.232,0,0,0,.545-.022,1.44,1.44,0,0,0,0,.577c.779.029.928.506,1.768.941a7.356,7.356,0,0,0,1.055.469v.045c-1.577-.049-2.273.209-3.152-.383a2.338,2.338,0,0,0-.223.484,2.015,2.015,0,0,0-.595-.327,1.211,1.211,0,0,1-.976.321,1.122,1.122,0,0,1,.308-.97m-.136-.535c.1.043.64.222.64.222l.007.007a.334.334,0,0,1,.031-.125l0-.008A.706.706,0,0,1,.6,19.322L.58,19.3v0a1.042,1.042,0,0,1-.373.21M.58,17.067a7.356,7.356,0,0,1-.46-1.557,13.556,13.556,0,0,0,1,3.878.422.422,0,0,1,.151-.021.554.554,0,0,0,.11-.252c.224-.733-.478-1.2-.8-2.048m1.414,1.986-.48.4v0a.29.29,0,0,1,.04.034.389.389,0,0,1,.058.075l0,.007A.951.951,0,0,1,2,19.46a.78.78,0,0,1,0-.407m2.754,1.8-.612-.191c-.967-.347-1.316-1.068-2.043-1.027a1.027,1.027,0,0,0-.414.119.412.412,0,0,1-.024.149h.01a9.77,9.77,0,0,0,3.083.95m-3.205-.033a.954.954,0,0,1,.152-.373.645.645,0,0,1-.225-.314h0a.355.355,0,0,1-.149.047H1.31Zm-.112-.872a.239.239,0,1,0-.337,0,.239.239,0,0,0,.337,0m-.462.541a.576.576,0,0,0,.141-.335.387.387,0,0,1-.171-.124l-.747.8a.982.982,0,0,0,.776-.344" transform="translate(0 -3.846)" fill="#fff"/>
      <path id="Trazado_437" data-name="Trazado 437" d="M.341.976A1.124,1.124,0,0,1,.033.006a1.213,1.213,0,0,1,.976.32A1.98,1.98,0,0,0,1.6,0a2.321,2.321,0,0,0,.223.484C2.706-.107,3.4.151,4.979.1V.145a7.433,7.433,0,0,0-1.055.47c-.839.434-.988.91-1.768.94a1.444,1.444,0,0,0,0,.577,2.127,2.127,0,0,0-.545-.023A1.473,1.473,0,0,1,1.335,3c-.072.11-.1.159-.225.347a8.613,8.613,0,0,0-1,2.365H.073L.034,3.021a2.086,2.086,0,0,1,.435-1.17A2.226,2.226,0,0,0,0,1.565,2.014,2.014,0,0,0,.341.976m-.136.535a1.043,1.043,0,0,1,.373.209v0L.6,1.7a.7.7,0,0,1,.286-.286l0-.009a.334.334,0,0,1-.031-.124l-.007.007s-.538.18-.64.222M.58,3.956c.326-.845,1.028-1.316.8-2.049a.546.546,0,0,0-.11-.252.46.46,0,0,1-.151-.021,13.551,13.551,0,0,0-1,3.877A7.355,7.355,0,0,1,.58,3.956M1.993,1.97a.781.781,0,0,1,0-.407.951.951,0,0,1-.383-.112l0,.007a.389.389,0,0,1-.058.075.446.446,0,0,1-.04.034v0ZM4.747.168a9.789,9.789,0,0,0-3.083.95h-.01a.409.409,0,0,1,.024.149,1,1,0,0,0,.414.119C2.82,1.428,3.168.706,4.135.36ZM1.542.2,1.31.84h.005a.335.335,0,0,1,.149.047h0A.653.653,0,0,1,1.694.574.947.947,0,0,1,1.542.2m-.112.873a.239.239,0,1,0,0,.338.237.237,0,0,0,0-.338M.967.533A.979.979,0,0,0,.191.189l.747.8A.374.374,0,0,1,1.108.869.578.578,0,0,0,.967.533" transform="translate(0 0)" fill="#fff"/>
      <path id="Trazado_438" data-name="Trazado 438" d="M31.437,8.551H31l-.081-1.167H30.9a2.315,2.315,0,0,1-2.218,1.3,3.035,3.035,0,0,1-3.027-3.341,3.034,3.034,0,0,1,3.027-3.34,2.513,2.513,0,0,1,2.676,2.128h-.611a2,2,0,0,0-2.065-1.607c-1.7,0-2.416,1.418-2.416,2.819s.718,2.82,2.416,2.82A2.13,2.13,0,0,0,30.9,5.812H28.716V5.291h2.721Z" transform="translate(-6.445 -0.504)" fill="#fff"/>
      <path id="Trazado_439" data-name="Trazado 439" d="M35.064,6.983A1.642,1.642,0,0,0,36.59,8.806a1.412,1.412,0,0,0,1.455-1.185h.566A1.893,1.893,0,0,1,36.59,9.282c-1.473,0-2.092-1.131-2.092-2.451A2.169,2.169,0,0,1,36.59,4.379c1.491,0,2.084,1.3,2.039,2.6Zm3-.475A1.557,1.557,0,0,0,36.59,4.855a1.643,1.643,0,0,0-1.526,1.653Z" transform="translate(-8.667 -1.1)" fill="#fff"/>
      <path id="Trazado_440" data-name="Trazado 440" d="M41.026,4.514h.566v.8h.018a1.571,1.571,0,0,1,1.482-.934c1.3,0,1.7.682,1.7,1.787V9.147h-.565V6.256c0-.8-.261-1.4-1.176-1.4a1.462,1.462,0,0,0-1.455,1.59v2.7h-.566Z" transform="translate(-10.307 -1.1)" fill="#fff"/>
      <path id="Trazado_441" data-name="Trazado 441" d="M47.736,6.983a1.642,1.642,0,0,0,1.526,1.823,1.412,1.412,0,0,0,1.455-1.185h.566a1.893,1.893,0,0,1-2.021,1.661c-1.473,0-2.092-1.131-2.092-2.451a2.169,2.169,0,0,1,2.092-2.452c1.491,0,2.084,1.3,2.039,2.6Zm3-.475a1.557,1.557,0,0,0-1.473-1.653,1.643,1.643,0,0,0-1.526,1.653Z" transform="translate(-11.851 -1.1)" fill="#fff"/>
      <path id="Trazado_442" data-name="Trazado 442" d="M53.71,4.537h.52V5.624h.019A1.712,1.712,0,0,1,56,4.474V5.04A1.6,1.6,0,0,0,54.275,6.7V9.171H53.71Z" transform="translate(-13.494 -1.124)" fill="#fff"/>
      <path id="Trazado_443" data-name="Trazado 443" d="M57.351,5.933c.054-1.086.818-1.554,1.877-1.554.817,0,1.706.252,1.706,1.491V8.33a.3.3,0,0,0,.332.341.527.527,0,0,0,.179-.036v.476a1.592,1.592,0,0,1-.368.035c-.575,0-.665-.323-.665-.808H60.4a1.766,1.766,0,0,1-1.688.943c-.853,0-1.553-.422-1.553-1.356,0-1.3,1.265-1.347,2.487-1.491.466-.053.727-.116.727-.628,0-.764-.547-.952-1.212-.952-.7,0-1.221.323-1.239,1.078Zm3.018.682H60.35c-.072.135-.323.18-.476.207-.961.171-2.155.162-2.155,1.068a.965.965,0,0,0,1.033.916,1.49,1.49,0,0,0,1.617-1.456Z" transform="translate(-14.359 -1.1)" fill="#fff"/>
      <rect id="Rectángulo_392" data-name="Rectángulo 392" width="0.566" height="6.412" transform="translate(47.718 1.635)" fill="#fff"/>
      <path id="Trazado_444" data-name="Trazado 444" d="M65.949,2.184h.566v.907h-.566Zm0,1.778h.566V8.6h-.566Z" transform="translate(-16.569 -0.549)" fill="#fff"/>
      <path id="Trazado_445" data-name="Trazado 445" d="M68.895,4.092h.943v.476h-.943V7.693c0,.368.054.584.458.611a4.366,4.366,0,0,0,.484-.027v.484c-.171,0-.332.018-.5.018-.755,0-1.015-.251-1.006-1.042V4.568h-.809V4.092h.809V2.7h.565Z" transform="translate(-16.964 -0.678)" fill="#fff"/>
      <path id="Trazado_446" data-name="Trazado 446" d="M71.57,5.933c.054-1.086.818-1.554,1.877-1.554.817,0,1.706.252,1.706,1.491V8.33a.3.3,0,0,0,.332.341.527.527,0,0,0,.179-.036v.476a1.592,1.592,0,0,1-.368.035c-.575,0-.665-.323-.665-.808h-.018a1.766,1.766,0,0,1-1.688.943c-.853,0-1.553-.422-1.553-1.356,0-1.3,1.265-1.347,2.487-1.491.466-.053.727-.116.727-.628,0-.764-.547-.952-1.212-.952-.7,0-1.221.323-1.239,1.078Zm3.018.682h-.018c-.072.135-.323.18-.476.207-.961.171-2.155.162-2.155,1.068a.965.965,0,0,0,1.033.916,1.49,1.49,0,0,0,1.617-1.456Z" transform="translate(-17.931 -1.1)" fill="#fff"/>
      <path id="Trazado_447" data-name="Trazado 447" d="M78.675,4.092h.943v.476h-.943V7.693c0,.368.054.584.458.611a4.377,4.377,0,0,0,.484-.027v.484c-.171,0-.332.018-.5.018-.755,0-1.015-.251-1.006-1.042V4.568H77.3V4.092h.809V2.7h.565Z" transform="translate(-19.421 -0.678)" fill="#fff"/>
      <path id="Trazado_448" data-name="Trazado 448" d="M88.835,8.6h-.52v-.88H88.3A1.836,1.836,0,0,1,86.644,8.73c-1.41,0-2.084-1.14-2.084-2.451s.674-2.451,2.084-2.451a1.654,1.654,0,0,1,1.608,1.015h.018V2.184h.565Zm-2.191-.341c1.2,0,1.626-1.015,1.626-1.976S87.847,4.3,86.644,4.3c-1.077,0-1.518,1.015-1.518,1.975s.44,1.976,1.518,1.976" transform="translate(-21.244 -0.549)" fill="#fff"/>
      <path id="Trazado_449" data-name="Trazado 449" d="M91.966,6.983a1.642,1.642,0,0,0,1.526,1.823,1.412,1.412,0,0,0,1.455-1.185h.566a1.893,1.893,0,0,1-2.021,1.661c-1.473,0-2.092-1.131-2.092-2.451a2.169,2.169,0,0,1,2.092-2.452c1.491,0,2.084,1.3,2.039,2.6Zm3-.475a1.557,1.557,0,0,0-1.473-1.653,1.643,1.643,0,0,0-1.526,1.653Z" transform="translate(-22.963 -1.1)" fill="#fff"/>
      <path id="Trazado_450" data-name="Trazado 450" d="M106,4.079a1.944,1.944,0,0,0-1.966-1.554c-1.7,0-2.416,1.419-2.416,2.82s.719,2.82,2.416,2.82a2.1,2.1,0,0,0,2.056-2.057h.611a2.617,2.617,0,0,1-2.667,2.577,3.034,3.034,0,0,1-3.026-3.34,3.034,3.034,0,0,1,3.026-3.34,2.455,2.455,0,0,1,2.577,2.074Z" transform="translate(-25.378 -0.504)" fill="#fff"/>
      <path id="Trazado_451" data-name="Trazado 451" d="M109.585,5.933c.055-1.086.818-1.554,1.877-1.554.817,0,1.706.252,1.706,1.491V8.33a.3.3,0,0,0,.332.341.527.527,0,0,0,.179-.036v.476a1.592,1.592,0,0,1-.368.035c-.575,0-.665-.323-.665-.808h-.018a1.766,1.766,0,0,1-1.688.943c-.853,0-1.554-.422-1.554-1.356,0-1.3,1.267-1.347,2.488-1.491.467-.053.727-.116.727-.628,0-.764-.547-.952-1.212-.952-.7,0-1.221.323-1.239,1.078Zm3.018.682h-.018c-.072.135-.323.18-.476.207-.961.171-2.155.162-2.155,1.068a.965.965,0,0,0,1.033.916A1.49,1.49,0,0,0,112.6,7.351Z" transform="translate(-27.482 -1.1)" fill="#fff"/>
      <path id="Trazado_452" data-name="Trazado 452" d="M116.69,4.092h.943v.476h-.943V7.693c0,.368.054.584.458.611a4.377,4.377,0,0,0,.484-.027v.484c-.171,0-.332.018-.5.018-.755,0-1.015-.251-1.006-1.042V4.568h-.809V4.092h.809V2.7h.565Z" transform="translate(-28.971 -0.678)" fill="#fff"/>
      <path id="Trazado_453" data-name="Trazado 453" d="M119.365,5.933c.055-1.086.818-1.554,1.877-1.554.817,0,1.706.252,1.706,1.491V8.33a.3.3,0,0,0,.332.341.527.527,0,0,0,.179-.036v.476a1.593,1.593,0,0,1-.368.035c-.575,0-.665-.323-.665-.808h-.018a1.766,1.766,0,0,1-1.688.943c-.853,0-1.554-.422-1.554-1.356,0-1.3,1.266-1.347,2.488-1.491.466-.053.727-.116.727-.628,0-.764-.547-.952-1.212-.952-.7,0-1.221.323-1.239,1.078Zm3.018.682h-.018c-.072.135-.323.18-.476.207-.961.171-2.155.162-2.155,1.068a.965.965,0,0,0,1.033.916,1.49,1.49,0,0,0,1.617-1.456Z" transform="translate(-29.939 -1.1)" fill="#fff"/>
      <rect id="Rectángulo_393" data-name="Rectángulo 393" width="0.566" height="6.412" transform="translate(94.152 1.635)" fill="#fff"/>
      <path id="Trazado_454" data-name="Trazado 454" d="M131.7,9.193h-.521V8.358h-.018a1.723,1.723,0,0,1-1.6.97c-1.167,0-1.625-.682-1.625-1.76V4.56h.565V7.577c.027.836.341,1.276,1.239,1.276.97,0,1.392-.916,1.392-1.859V4.56h.566Z" transform="translate(-32.143 -1.146)" fill="#fff"/>
      <path id="Trazado_455" data-name="Trazado 455" d="M134.383,4.514h.566v.8h.018a1.571,1.571,0,0,1,1.482-.934c1.3,0,1.7.682,1.7,1.787V9.147h-.565V6.256c0-.8-.261-1.4-1.176-1.4a1.462,1.462,0,0,0-1.455,1.59v2.7h-.566Z" transform="translate(-33.762 -1.1)" fill="#fff"/>
      <path id="Trazado_456" data-name="Trazado 456" d="M140.144,4.559h.6l1.526,3.951L143.7,4.559h.566L142.254,9.9c-.323.781-.511,1.006-1.221,1.006a1.46,1.46,0,0,1-.431-.045v-.475a1.95,1.95,0,0,0,.386.045c.5,0,.62-.3.809-.728l.2-.529Z" transform="translate(-35.209 -1.146)" fill="#fff"/>
      <path id="Trazado_457" data-name="Trazado 457" d="M146.257,5.933c.055-1.086.818-1.554,1.877-1.554.817,0,1.706.252,1.706,1.491V8.33a.3.3,0,0,0,.332.341.527.527,0,0,0,.179-.036v.476a1.588,1.588,0,0,1-.368.035c-.575,0-.665-.323-.665-.808H149.3a1.766,1.766,0,0,1-1.688.943c-.853,0-1.553-.422-1.553-1.356,0-1.3,1.265-1.347,2.487-1.491.466-.053.727-.116.727-.628,0-.764-.547-.952-1.212-.952-.7,0-1.221.323-1.239,1.078Zm3.017.682h-.018c-.072.135-.323.18-.476.207-.961.171-2.155.162-2.155,1.068a.965.965,0,0,0,1.033.916,1.49,1.49,0,0,0,1.617-1.456Z" transform="translate(-36.695 -1.1)" fill="#fff"/>
      <path id="Trazado_458" data-name="Trazado 458" d="M26.025,14.185h2.766c1.662,0,2.91,1.042,2.91,3.17,0,1.859-.952,3.242-2.91,3.242H26.025Zm1.41,5.226h1.257c.818,0,1.6-.5,1.6-1.922,0-1.293-.449-2.119-1.85-2.119H27.435Z" transform="translate(-6.538 -3.564)" fill="#fff"/>
      <path id="Trazado_459" data-name="Trazado 459" d="M35.712,19.136c.036.808.431,1.176,1.141,1.176a1.05,1.05,0,0,0,1.006-.6h1.122a2.088,2.088,0,0,1-2.173,1.563,2.268,2.268,0,0,1-2.371-2.442,2.333,2.333,0,1,1,4.625.305Zm2.075-.809c-.117-.646-.4-.988-1.015-.988a1,1,0,0,0-1.06.988Z" transform="translate(-8.652 -4.115)" fill="#fff"/>
      <path id="Trazado_460" data-name="Trazado 460" d="M41.626,16.5h1.212V17.1h.018a1.545,1.545,0,0,1,1.383-.718c1.455,0,2.11,1.176,2.11,2.5a2.143,2.143,0,0,1-2.038,2.4,1.647,1.647,0,0,1-1.392-.7H42.9v2.209H41.626Zm3.448,2.335c0-.736-.3-1.5-1.113-1.5-.835,0-1.1.746-1.1,1.5s.287,1.473,1.113,1.473,1.1-.718,1.1-1.473" transform="translate(-10.458 -4.115)" fill="#fff"/>
      <path id="Trazado_461" data-name="Trazado 461" d="M48.837,17.932c.072-1.2,1.14-1.554,2.183-1.554.925,0,2.038.207,2.038,1.321v2.416a2.376,2.376,0,0,0,.162,1.033H51.926a1.9,1.9,0,0,1-.09-.449,2.128,2.128,0,0,1-1.563.575c-.88,0-1.581-.44-1.581-1.392,0-1.051.791-1.3,1.581-1.41s1.509-.09,1.509-.61c0-.548-.377-.629-.826-.629-.485,0-.8.2-.844.7Zm2.946.943a2.546,2.546,0,0,1-1.06.27c-.4.081-.754.215-.754.682s.368.593.781.593a.948.948,0,0,0,1.033-1.069Z" transform="translate(-12.233 -4.115)" fill="#fff"/>
      <path id="Trazado_462" data-name="Trazado 462" d="M55.845,16.5h1.212v.862h.018a1.642,1.642,0,0,1,1.482-.988.951.951,0,0,1,.279.045v1.185a2.329,2.329,0,0,0-.458-.045c-.934,0-1.257.674-1.257,1.491v2.093H55.845Z" transform="translate(-14.03 -4.115)" fill="#fff"/>
      <path id="Trazado_463" data-name="Trazado 463" d="M61.985,16.08h.934v.854h-.934v2.3c0,.431.108.538.538.538a1.962,1.962,0,0,0,.4-.036v1a4.891,4.891,0,0,1-.746.044c-.781,0-1.463-.179-1.463-1.1V16.934h-.773V16.08h.773V14.688h1.275Z" transform="translate(-15.058 -3.69)" fill="#fff"/>
      <path id="Trazado_464" data-name="Trazado 464" d="M64.617,17.932c.072-1.2,1.14-1.554,2.182-1.554.925,0,2.039.207,2.039,1.321v2.416A2.376,2.376,0,0,0,69,21.147H67.705a1.936,1.936,0,0,1-.089-.449,2.13,2.13,0,0,1-1.563.575c-.88,0-1.581-.44-1.581-1.392,0-1.051.791-1.3,1.581-1.41s1.509-.09,1.509-.61c0-.548-.377-.629-.827-.629-.484,0-.8.2-.844.7Zm2.946.943a2.55,2.55,0,0,1-1.06.27c-.395.081-.754.215-.754.682s.368.593.782.593a.948.948,0,0,0,1.033-1.069Z" transform="translate(-16.198 -4.115)" fill="#fff"/>
      <path id="Trazado_465" data-name="Trazado 465" d="M71.673,16.5h1.2v.629h.018a1.676,1.676,0,0,1,1.419-.755,1.373,1.373,0,0,1,1.356.773,1.686,1.686,0,0,1,1.4-.773,1.5,1.5,0,0,1,1.7,1.662v3.107H77.492V18.516c0-.619-.053-1.131-.781-1.131s-.853.593-.853,1.177v2.586H74.583v-2.6c0-.539.036-1.159-.773-1.159-.251,0-.862.162-.862,1.068v2.695H71.673Z" transform="translate(-18.007 -4.115)" fill="#fff"/>
      <path id="Trazado_466" data-name="Trazado 466" d="M83.472,19.136c.036.808.431,1.176,1.141,1.176a1.049,1.049,0,0,0,1.006-.6h1.122a2.088,2.088,0,0,1-2.173,1.563A2.268,2.268,0,0,1,82.2,18.83a2.333,2.333,0,1,1,4.625.305Zm2.075-.809c-.117-.646-.4-.988-1.015-.988a1,1,0,0,0-1.06.988Z" transform="translate(-20.651 -4.115)" fill="#fff"/>
      <path id="Trazado_467" data-name="Trazado 467" d="M89.384,16.5H90.6v.647h.027a1.657,1.657,0,0,1,1.419-.773c1.356,0,1.7.764,1.7,1.913v2.856H92.464V18.526c0-.764-.225-1.141-.818-1.141-.691,0-.988.386-.988,1.33v2.433H89.384Z" transform="translate(-22.456 -4.115)" fill="#fff"/>
      <path id="Trazado_468" data-name="Trazado 468" d="M97.972,16.08h.934v.854h-.934v2.3c0,.431.108.538.538.538a1.962,1.962,0,0,0,.4-.036v1a4.9,4.9,0,0,1-.746.044c-.781,0-1.463-.179-1.463-1.1V16.934h-.773V16.08H96.7V14.688h1.275Z" transform="translate(-24.099 -3.69)" fill="#fff"/>
      <path id="Trazado_469" data-name="Trazado 469" d="M107.308,20h-.018a1.542,1.542,0,0,1-1.41.718c-1.4,0-2.083-1.2-2.083-2.487a2.153,2.153,0,0,1,2.056-2.407,1.6,1.6,0,0,1,1.374.692h.018V14.184h1.275V20.6h-1.212Zm-1.113-3.215c-.835,0-1.122.719-1.122,1.482,0,.728.332,1.491,1.122,1.491.844,0,1.1-.736,1.1-1.5s-.27-1.473-1.1-1.473" transform="translate(-26.077 -3.564)" fill="#fff"/>
      <path id="Trazado_470" data-name="Trazado 470" d="M111.56,14.184h1.275v1.374a1.443,1.443,0,0,1-1.275,1.509v-.592a.826.826,0,0,0,.593-.908h-.593Z" transform="translate(-28.028 -3.564)" fill="#fff"/>
      <path id="Trazado_471" data-name="Trazado 471" d="M114.908,14.184h4.8v1.185h-3.385v1.374h3.107v1.1h-3.107V19.41h3.458V20.6h-4.868Z" transform="translate(-28.869 -3.564)" fill="#fff"/>
      <path id="Trazado_472" data-name="Trazado 472" d="M125.752,20h-.018a1.542,1.542,0,0,1-1.409.718c-1.4,0-2.084-1.2-2.084-2.487a2.153,2.153,0,0,1,2.057-2.407,1.6,1.6,0,0,1,1.373.692h.018V14.184h1.276V20.6h-1.213Zm-1.113-3.215c-.835,0-1.122.719-1.122,1.482,0,.728.332,1.491,1.122,1.491.845,0,1.1-.736,1.1-1.5s-.269-1.473-1.1-1.473" transform="translate(-30.711 -3.564)" fill="#fff"/>
      <path id="Trazado_473" data-name="Trazado 473" d="M134.192,21.19h-1.212v-.647h-.027a1.657,1.657,0,0,1-1.419.773c-1.356,0-1.7-.764-1.7-1.913V16.547h1.275v2.622c0,.764.225,1.141.818,1.141.691,0,.988-.386.988-1.329V16.547h1.275Z" transform="translate(-32.619 -4.157)" fill="#fff"/>
      <path id="Trazado_474" data-name="Trazado 474" d="M140.065,18.139a.87.87,0,0,0-.943-.8c-.818,0-1.087.827-1.087,1.509,0,.665.261,1.464,1.06,1.464a.981.981,0,0,0,1.015-.943h1.23a2.075,2.075,0,0,1-2.236,1.9,2.254,2.254,0,0,1-2.344-2.38,2.3,2.3,0,0,1,2.371-2.514,1.971,1.971,0,0,1,2.182,1.76Z" transform="translate(-34.359 -4.115)" fill="#fff"/>
      <path id="Trazado_475" data-name="Trazado 475" d="M143.72,17.932c.072-1.2,1.14-1.554,2.183-1.554.925,0,2.038.207,2.038,1.321v2.416a2.376,2.376,0,0,0,.162,1.033h-1.294a1.935,1.935,0,0,1-.089-.449,2.13,2.13,0,0,1-1.563.575c-.88,0-1.581-.44-1.581-1.392,0-1.051.791-1.3,1.581-1.41s1.509-.09,1.509-.61c0-.548-.377-.629-.827-.629-.484,0-.8.2-.844.7Zm2.946.943a2.549,2.549,0,0,1-1.059.27c-.4.081-.755.215-.755.682s.368.593.782.593a.948.948,0,0,0,1.033-1.069Z" transform="translate(-36.071 -4.115)" fill="#fff"/>
      <path id="Trazado_476" data-name="Trazado 476" d="M153.84,18.139a.87.87,0,0,0-.943-.8c-.818,0-1.086.827-1.086,1.509,0,.665.261,1.464,1.06,1.464a.981.981,0,0,0,1.015-.943h1.23a2.075,2.075,0,0,1-2.236,1.9,2.254,2.254,0,0,1-2.344-2.38,2.3,2.3,0,0,1,2.371-2.514,1.973,1.973,0,0,1,2.183,1.76Z" transform="translate(-37.82 -4.115)" fill="#fff"/>
      <path id="Trazado_477" data-name="Trazado 477" d="M158.937,15.235h-1.274V14.184h1.274Zm-1.274.719h1.274V20.6h-1.274Z" transform="translate(-39.61 -3.564)" fill="#fff"/>
      <path id="Trazado_478" data-name="Trazado 478" d="M162.917,15.8a2.279,2.279,0,0,1,2.407,2.451,2.4,2.4,0,1,1-4.8,0,2.277,2.277,0,0,1,2.4-2.451m0,3.933c.871,0,1.131-.746,1.131-1.482s-.261-1.491-1.131-1.491-1.122.745-1.122,1.491.261,1.482,1.122,1.482m.216-4.383h-.889l.862-1.275h1.41Z" transform="translate(-40.328 -3.537)" fill="#fff"/>
    </g>
  </g>
</svg>
