<svg xmlns="http://www.w3.org/2000/svg" width="325" height="42.547" viewBox="0 0 325 42.547">
  <g id="Multimedia_Àudio" data-name="Multimedia Àudio" transform="translate(-24 -492.726)">
    <path id="Play" d="M22.767,42.567a5.66,5.66,0,0,0,2.864-.98l29.3-16.939c2.087-1.23,2.815-2.036,2.815-3.366s-.728-2.139-2.815-3.343L25.631.975A5.616,5.616,0,0,0,22.767.02c-1.861,0-3.016,1.408-3.016,3.593V38.949c0,2.185,1.155,3.618,3.016,3.618" transform="translate(148.249 492.706)" fill="#fff"/>
    <path id="Següent_Contingut" data-name="Següent Contingut" d="M54.919,24.019c-1.192,0-2.2-.917-2.2-2.612V2.631c0-1.7,1.007-2.612,2.2-2.612a3.3,3.3,0,0,1,1.757.566L72.242,9.751a2.6,2.6,0,0,1,1.544,2.26,2.6,2.6,0,0,1-1.544,2.276L56.675,23.454a3.278,3.278,0,0,1-1.757.565m-20.99,0c-1.192,0-2.2-.917-2.2-2.612V2.631c0-1.7,1.007-2.612,2.2-2.612a3.3,3.3,0,0,1,1.757.566L51.252,9.751a2.6,2.6,0,0,1,1.544,2.26,2.6,2.6,0,0,1-1.544,2.276L35.685,23.454a3.278,3.278,0,0,1-1.757.565" transform="translate(214.271 501.981)" fill="#fff"/>
    <path id="Anterior_Contingut" data-name="Anterior Contingut" d="M50.6,24.019c1.192,0,2.2-.917,2.2-2.612V2.631c0-1.7-1.007-2.612-2.2-2.612A3.3,3.3,0,0,0,48.84.585L33.273,9.751a2.6,2.6,0,0,0-1.544,2.26,2.6,2.6,0,0,0,1.544,2.276L48.84,23.454a3.278,3.278,0,0,0,1.757.565m20.99,0c1.192,0,2.2-.917,2.2-2.612V2.631c0-1.7-1.007-2.612-2.2-2.612A3.3,3.3,0,0,0,69.83.585L54.263,9.751a2.6,2.6,0,0,0-1.544,2.26,2.6,2.6,0,0,0,1.544,2.276L69.83,23.454a3.278,3.278,0,0,0,1.757.565" transform="translate(53.271 501.981)" fill="#fff"/>
    <g id="_15_segons" data-name="15 segons" transform="translate(-8 -154)">
      <g id="_15_segons_davant" data-name="15 segons davant" transform="translate(337.078 657)">
        <path id="Trazado_167" data-name="Trazado 167" d="M0,11.855a10.035,10.035,0,0,0,9.961,9.961,10.029,10.029,0,0,0,9.961-9.961A10.009,10.009,0,0,0,15.752,3.8a.8.8,0,0,0-1.211.176.866.866,0,0,0,.283,1.172A8.292,8.292,0,1,1,1.67,11.855,8.241,8.241,0,0,1,8.076,3.779v1.4c0,.694.479.879,1.016.5l3.115-2.187a.616.616,0,0,0,0-1.094L9.1.205C8.555-.186,8.076,0,8.076.7V2.08A10.041,10.041,0,0,0,0,11.855" transform="translate(0 -0.004)" fill="#fff"/>
        <path id="Trazado_168" data-name="Trazado 168" d="M7.353,15.868a.661.661,0,0,0,.684-.722V8.974a.713.713,0,0,0-.781-.762,1.545,1.545,0,0,0-.977.41l-1.1.821a.628.628,0,0,0-.313.537.478.478,0,0,0,.479.5.5.5,0,0,0,.351-.127l.967-.723h.019v5.518a.659.659,0,0,0,.674.722m4.8.059a2.433,2.433,0,0,0,2.471-2.646A2.166,2.166,0,0,0,12.6,10.849a1.6,1.6,0,0,0-1.455.8H11.1l.176-2.227H13.76a.547.547,0,0,0,0-1.094H10.928c-.508,0-.743.264-.772.782l-.215,2.841c-.029.44.2.762.625.762a.746.746,0,0,0,.645-.361,1.183,1.183,0,0,1,.957-.508c.771,0,1.152.693,1.152,1.475,0,.83-.42,1.523-1.162,1.523a1.245,1.245,0,0,1-1.172-.889.63.63,0,0,0-.586-.42.525.525,0,0,0-.556.567,1.332,1.332,0,0,0,.048.342,2.311,2.311,0,0,0,2.266,1.484" transform="translate(0 -0.004)" fill="#fff"/>
      </g>
      <g id="_15_segons_enrere" data-name="15 segons enrere" transform="translate(32 657)">
        <path id="Trazado_169" data-name="Trazado 169" d="M24.746,11.854a9.961,9.961,0,1,0,19.922,0,10.041,10.041,0,0,0-8.076-9.775V.692c0-.693-.479-.879-1.006-.5L32.471,2.372a.617.617,0,0,0,0,1.1l3.1,2.188c.537.39,1.016.2,1.016-.5V3.778a8.315,8.315,0,1,1-6.748,1.367.866.866,0,0,0,.283-1.172A.8.8,0,0,0,28.916,3.8a10.011,10.011,0,0,0-4.17,8.057" transform="translate(-24.746 0)" fill="#fff"/>
        <path id="Trazado_170" data-name="Trazado 170" d="M32.148,15.868a.661.661,0,0,0,.684-.722V8.974a.713.713,0,0,0-.781-.762,1.545,1.545,0,0,0-.977.41l-1.1.821a.628.628,0,0,0-.313.537.478.478,0,0,0,.479.5.5.5,0,0,0,.351-.127l.967-.723h.02v5.518a.658.658,0,0,0,.673.722m4.805.059a2.433,2.433,0,0,0,2.471-2.646,2.171,2.171,0,0,0-2.032-2.432,1.6,1.6,0,0,0-1.455.8H35.9l.176-2.227h2.481a.547.547,0,0,0,0-1.094H35.723c-.508,0-.743.264-.772.782l-.215,2.841c-.029.44.2.762.625.762a.746.746,0,0,0,.645-.361,1.183,1.183,0,0,1,.957-.508c.771,0,1.152.693,1.152,1.475,0,.83-.42,1.523-1.162,1.523a1.245,1.245,0,0,1-1.172-.889.63.63,0,0,0-.586-.42.525.525,0,0,0-.556.567,1.332,1.332,0,0,0,.048.342,2.311,2.311,0,0,0,2.266,1.484" transform="translate(-24.746 0)" fill="#fff"/>
      </g>
    </g>
  </g>
</svg>
