<svg id="opciones" xmlns="http://www.w3.org/2000/svg" width="28.14" height="28.136" viewBox="0 0 28.14 28.136">
  <path id="Trazado_431" data-name="Trazado 431" d="M14.067,28.136A14.148,14.148,0,0,0,28.14,14.067,14.149,14.149,0,0,0,14.057,0,14.136,14.136,0,0,0,0,14.067,14.152,14.152,0,0,0,14.067,28.136m0-3.091A10.977,10.977,0,1,1,25.048,14.067,10.936,10.936,0,0,1,14.067,25.044" fill="rgba(255,255,255,0.6)"/>
  <path id="Trazado_432" data-name="Trazado 432" d="M9.339,8.346h9.267a.9.9,0,1,0,0-1.8H9.339a.883.883,0,0,0-.887.9.894.894,0,0,0,.887.9m0,8.48h9.267a.9.9,0,1,0,0-1.8H9.339a.9.9,0,0,0-.887.9.879.879,0,0,0,.887.891m0-4.238h9.267a.9.9,0,1,0,0-1.8H9.339a.9.9,0,0,0,0,1.8M6.089,8.667A1.236,1.236,0,0,0,7.3,7.451,1.216,1.216,0,1,0,6.089,8.667m0,4.242a1.216,1.216,0,0,0,0-2.431,1.216,1.216,0,1,0,0,2.431m0,4.238a1.213,1.213,0,1,0-1.217-1.211,1.222,1.222,0,0,0,1.217,1.211" transform="translate(1.858 2.379)" fill="rgba(255,255,255,0.6)"/>
</svg>
