<svg xmlns="http://www.w3.org/2000/svg" width="42.057" height="24" viewBox="0 0 42.057 24">
  <path id="Següent_Contingut" data-name="Següent Contingut" d="M54.919,24.019c-1.192,0-2.2-.917-2.2-2.612V2.631c0-1.7,1.007-2.612,2.2-2.612a3.3,3.3,0,0,1,1.757.566L72.242,9.751a2.6,2.6,0,0,1,1.544,2.26,2.6,2.6,0,0,1-1.544,2.276L56.675,23.454a3.278,3.278,0,0,1-1.757.565m-20.99,0c-1.192,0-2.2-.917-2.2-2.612V2.631c0-1.7,1.007-2.612,2.2-2.612a3.3,3.3,0,0,1,1.757.566L51.252,9.751a2.6,2.6,0,0,1,1.544,2.26,2.6,2.6,0,0,1-1.544,2.276L35.685,23.454a3.278,3.278,0,0,1-1.757.565" transform="translate(-31.729 -0.019)" fill="#fff"/>
</svg>
